<svg height="415pt" viewBox="115.8 157.7 507.2 103" width="739pt" xmlns="http://www.w3.org/2000/svg"><path d="m153.5 159.4c-17.7 4.4-30.6 16.3-35.6 32.8-1.7 5.7-2.1 8.8-1.8 18.1.4 10.8.6 11.7 4.2 19.1 5 10.1 12.3 17.4 21.9 22 8.9 4.1 15.4 5.6 25.6 5.6 25.4 0 45.2-16 49.7-40.3l.7-3.7h-16.3l-16.4.1-2.5 5.2c-3.1 6.5-8.2 9.7-15.5 9.7-10.1 0-17.2-6.8-18.2-17.6-1.4-15.7 8.5-26.3 21.9-23.2 5.4 1.2 10.4 5 12.5 9.4l1.7 3.4h32.4l-.9-3.9c-4.2-18.6-17-31.8-35.6-36.6-6.8-1.8-20.8-1.8-27.8-.1zm88.1 17.5c-5.3 8.8-10.8 18.5-12.2 21.6-9.9 22.5-5.2 43.8 11.6 52.9 17.1 9.3 40.7 6.9 53-5.4 9.6-9.6 12.5-25.3 7-37.8-5.2-11.7-15.5-18.1-29.8-18.4-2.9-.1-5.2-.3-5.2-.6 0-.2 3.5-6.1 7.8-13 4.3-7 8.2-13.3 8.6-14 .6-.9-2.7-1.2-15.2-1.2h-15.9zm28.4 33.6c6.2 3.2 8 12.9 3.5 18.4-5.3 6.2-13.7 6.2-19 0-4.5-5.4-2.7-15.1 3.3-18.3 3.5-2 8.6-2 12.2-.1zm55-3v46.5h17.8c19.7 0 23.3-.7 29.3-5.3 11.6-8.9 12.9-27.2 2.8-38.2-2.2-2.3-5.3-4.8-6.9-5.5-3.7-1.5-3.7-2.1-.1-4.8 8.9-6.5 9.6-23.8 1.3-32.6-5.4-5.7-9-6.6-27.4-6.6h-16.8zm32.2-42.4c16.8 3.6 19.9 27.3 4.6 34.8-3.9 1.8-6.2 2.1-18.6 2.1h-14.2v-38h11.5c6.2 0 13.8.5 16.7 1.1zm8.3 42.8c7.6 3.5 12.5 11.1 12.5 19.4 0 8.1-1.1 10.9-6.4 16.3-6.3 6.4-10.1 7.4-29.1 7.4h-13.5v-45h16.3c13.6 0 16.8.3 20.2 1.9zm58.6-44.7c-7.1 18.4-20.7 53.6-25.1 65.3-3.2 8.2-6.7 17.4-7.9 20.2-2 5.2-2 5.3-.2 5.3 1.6 0 2.9-2.6 6.9-12.8 2.7-7 5.2-13.5 5.5-14.5.6-1.6 2.4-1.7 22.9-1.5l22.2.3 5.5 14.2c4.4 11.6 5.8 14.3 7.3 14.3 1.1 0 1.8-.4 1.6-.9-29.2-76.2-35.5-92.1-36.6-92.1-.7 0-1.6 1-2.1 2.2zm12.4 31.5c5.5 14.1 10.2 26 10.3 26.5.2.4-8.9.8-20.3.8h-20.7l.5-2.3c1.1-4.1 19.2-50.7 19.7-50.7.3 0 5.1 11.5 10.5 25.7zm41.5 12.8c0 45.7 0 46.5 2 46.5 1.9 0 2-.8 2.2-42.1l.3-42.1 4.6 6.4c34.4 47.7 56.2 77.4 57 77.6.5.2.9-17.3.9-46.2 0-40.6-.2-46.6-1.5-46.6s-1.5 5.6-1.7 42.1l-.3 42.1-3.5-5c-21.1-29.9-57.7-79.2-58.7-79.2-1.1 0-1.3 8.7-1.3 46.5zm89 0c0 40.7.2 46.5 1.5 46.5s1.5-2.3 1.5-15.1v-15.1l7.6-8.8 7.7-8.9 9.1 12.7c5 7 12.7 17.8 17.1 23.9 5.1 7.3 8.6 11.3 9.7 11.3 1 0 1.8-.3 1.8-.8-.1-.4-7.3-10.8-16.1-23.2-8.9-12.4-16.8-23.5-17.6-24.7-1.5-2.2-.9-3 16.1-22.7 9.7-11.3 17.6-20.7 17.6-21s-.8-.6-1.9-.6c-1.2 0-9.8 9.2-24.2 26.1-12.3 14.4-23.1 27-24 28-.9 1.1-1.9 1.9-2.3 1.9-.3 0-.6-12.6-.6-28 0-24.2-.2-28-1.5-28s-1.5 5.8-1.5 46.5z"/></svg>