<?xml version="1.0" encoding="UTF-8"?>
<svg id="Layer_1" xmlns="http://www.w3.org/2000/svg" viewBox="0 0 864 229.2425">
  <path id="logoMark" d="M65.7487,181.733l22.1904,44.3809c.9587,1.9174,2.9184,3.1286,5.0621,3.1286h97.3681c4.2073,0,6.9437-4.4276,5.0621-8.1907l-24.0535-48.107c-.9587-1.9174-2.9184-3.1286-5.0621-3.1286h-94.5438c-4.2073,0-6.9437-4.4277-5.0621-8.1908l44.4445-88.8843c2.0858-4.1714,8.0386-4.1713,10.1243.0002l44.1409,88.2865c.9587,1.9175,2.9184,3.1287,5.0622,3.1287h53.7829c4.2073,0,6.9437-4.4276,5.0621-8.1907l-46.6921-93.3841c-.9587-1.9174-2.9184-3.1286-5.0621-3.1286h-49.6172c-4.2876,0-8.2071-2.4225-10.1245-6.2575L92.7998,3.1288c-2.0857-4.1717-8.0388-4.1717-10.1245,0L.6047,167.2853c-1.8814,3.7631.855,8.1905,5.0622,8.1905h49.9575c4.2874,0,8.2069,2.4224,10.1243,6.2571Z" style="fill: #fff;"/>
  <g id="type">
    <path id="type__x3C_CompoundPathItem_x3E_" d="M350.3058,35.9968h24.8979c.9923,0,1.8812.6139,2.2325,1.542l57.4917,151.8656c.5912,1.5617-.5626,3.2323-2.2325,3.2323h-24.6327c-1.0042,0-1.9011-.6285-2.2438-1.5724l-13.0789-36.0211h-59.2994l-13.0789,36.0211c-.3427.9439-1.2396,1.5724-2.2438,1.5724h-25.3038c-1.6699,0-2.8237-1.6706-2.2325-3.2323l57.4917-151.8656c.3513-.928,1.2402-1.542,2.2325-1.542ZM383.118,128.8618l-20.1397-55.7191-20.1391,55.7191h40.2787Z" style="fill: #fff;"/>
    <path id="type__x3C_CompoundPathItem_x3E_-2" data-name="type__x3C_CompoundPathItem_x3E_" d="M466.8077,30.6263c8.9508,0,16.3348,7.3846,16.3348,16.3354,0,9.1745-7.384,16.5587-16.3348,16.5587-9.1747,0-16.5593-7.3843-16.5593-16.5587,0-8.9508,7.3846-16.3354,16.5593-16.3354ZM452.2625,190.2494v-108.9016c0-1.3184,1.0687-2.3871,2.3871-2.3871h24.3157c1.3184,0,2.3871,1.0687,2.3871,2.3871v108.9016c0,1.3184-1.0687,2.3871-2.3871,2.3871h-24.3157c-1.3184,0-2.3871-1.0687-2.3871-2.3871Z" style="fill: #fff;"/>
    <path id="type__x3C_CompoundPathItem_x3E_-3" data-name="type__x3C_CompoundPathItem_x3E_" d="M598.2906,99.7602l-53.6113,65.3526h51.7657c1.3184,0,2.3871,1.0687,2.3871,2.3871v22.7494c0,1.3184-1.0687,2.3871-2.3871,2.3871h-91.7459c-.6592,0-1.1936-.5344-1.1936-1.1936v-18.1199c0-.5352.1799-1.0549.5107-1.4757l51.4041-65.3631h-48.8565c-1.3184,0-2.3871-1.0687-2.3871-2.3871v-22.7494c0-1.3184,1.0687-2.3871,2.3871-2.3871h91.0748c.6592,0,1.1936.5344,1.1936,1.1936v18.092c0,.5521-.1914,1.0871-.5415,1.514Z" style="fill: #fff;"/>
    <path id="type__x3C_CompoundPathItem_x3E_-4" data-name="type__x3C_CompoundPathItem_x3E_" d="M673.5707,195.993h-.2239c-38.4886,0-63.3275-26.1807-63.3275-59.7466v-.4478c0-34.9082,26.1813-60.1942,60.1945-60.1942h.2239c35.1321,0,61.9846,25.5096,61.9846,60.4181,0,2.9848-.1771,5.9701-.3738,8.955-.0413.6273-.5627,1.1148-1.1913,1.1148h-91.0763c3.8042,14.7692,16.1115,24.6145,33.1181,24.6145h.2239c13.0625,0,23.15-4.959,31.1956-13.1967.8561-.8766,2.2316-.9734,3.1925-.2131l16.6731,13.192c1.0813.8556,1.2181,2.4534.2923,3.4753-16.1711,17.8495-34.6876,22.0288-50.9056,22.0288ZM702.6606,125.5053c-3.8042-14.9928-16.1115-25.0626-31.3279-25.0626h-.2239c-15.2164,0-27.5237,10.2935-31.3279,25.0626h62.8797Z" style="fill: #fff;"/>
    <path id="type__x3C_CompoundPathItem_x3E_-5" data-name="type__x3C_CompoundPathItem_x3E_" d="M755.0238,190.2494v-81.685c0-3.8949-.6555-7.762-1.939-11.4393l-5.7862-16.5775c-.2708-.7758.3051-1.5869,1.1269-1.5869h25.697c1.0234,0,1.933.6524,2.2611,1.6218l4.3743,12.9235c7.8318-10.9649,19.6918-17.9017,35.3555-17.9017h.2239c28.8666,0,47.6627,21.2581,47.6627,54.1525v60.4926c0,1.3184-1.0687,2.3871-2.3871,2.3871h-24.3157c-1.3184,0-2.3871-1.0687-2.3871-2.3871v-60.4926c0-17.678-9.8459-29.0902-25.2862-29.0902h-.2233c-15.4403,0-25.2862,11.4122-25.2862,29.0902v60.4926c0,1.3184-1.0687,2.3871-2.3871,2.3871h-24.3163c-1.3184,0-2.3871-1.0687-2.3871-2.3871Z" style="fill: #fff;"/>
  </g>
</svg>