<?xml version="1.0" encoding="UTF-8"?>
<svg id="Layer_1" xmlns="http://www.w3.org/2000/svg" viewBox="0 0 231.2085 229.2425">
  <path id="logoMark" d="M65.7487,181.733l22.1904,44.3809c.9587,1.9174,2.9184,3.1286,5.0621,3.1286h97.3681c4.2073,0,6.9437-4.4276,5.0621-8.1907l-24.0535-48.107c-.9587-1.9174-2.9184-3.1286-5.0621-3.1286h-94.5438c-4.2073,0-6.9437-4.4277-5.0621-8.1908l44.4445-88.8843c2.0858-4.1714,8.0386-4.1713,10.1243.0002l44.1409,88.2865c.9587,1.9175,2.9184,3.1287,5.0622,3.1287h53.7829c4.2073,0,6.9437-4.4276,5.0621-8.1907l-46.6921-93.3841c-.9587-1.9174-2.9184-3.1286-5.0621-3.1286h-49.6172c-4.2876,0-8.2071-2.4225-10.1245-6.2575L92.7998,3.1288c-2.0857-4.1717-8.0388-4.1717-10.1245,0L.6047,167.2853c-1.8814,3.7631.855,8.1905,5.0622,8.1905h49.9575c4.2874,0,8.2069,2.4224,10.1243,6.2571Z" style="fill: #fff;"/>
</svg>